<?xml version="1.0" encoding="UTF-8" standalone="no"?>
<svg width="60px" height="18px" viewBox="0 0 60 18" version="1.1" xmlns="http://www.w3.org/2000/svg" xmlns:xlink="http://www.w3.org/1999/xlink">
    <!-- Generator: sketchtool 39.1 (31720) - http://www.bohemiancoding.com/sketch -->
    <title>D7442D84-C22C-403E-BAB4-96C9E4E63CB9</title>
    <desc>Created with sketchtool.</desc>
    <defs>
        <polygon id="path-1" points="7.65696 0.3368 0.31976 0.3368 0.31976 6.64716 7.65696 6.64716 7.65696 0.3368"></polygon>
    </defs>
    <g id="Page-1" stroke="none" stroke-width="1" fill="none" fill-rule="evenodd">
        <g id="Home-NO" transform="translate(-130.000000, -116.000000)">
            <g id="Page-1" transform="translate(130.000000, 116.000000)">
                <path d="M11.37324,6.41588 C9.77724,6.41588 8.39604,7.33988 7.72644,8.67868 C7.05644,7.33988 5.67524,6.41588 4.07924,6.41588 C2.77324,6.41588 1.61124,7.03548 0.86404,7.99348 L0.86404,6.69908 C0.86404,6.46108 0.67044,6.26708 0.43204,6.26708 C0.19364,6.26708 3.99999999e-05,6.46108 3.99999999e-05,6.69908 L3.99999999e-05,17.11028 C3.99999999e-05,17.34868 0.19364,17.54268 0.43204,17.54268 C0.67044,17.54268 0.86404,17.34868 0.86404,17.11028 L0.86404,10.49548 C0.86404,8.72268 2.30644,7.28068 4.07924,7.28068 C5.85204,7.28068 7.29404,8.72268 7.29404,10.49548 L7.29404,17.11028 C7.29404,17.34868 7.48764,17.54268 7.72604,17.54268 C7.96444,17.54268 8.15844,17.34868 8.15844,17.11028 L8.15844,10.49548 C8.15844,8.72268 9.60084,7.28068 11.37324,7.28068 C13.14564,7.28068 14.58804,8.72268 14.58804,10.49548 L14.58804,17.11028 C14.58804,17.34868 14.78204,17.54268 15.02044,17.54268 C15.25884,17.54268 15.45244,17.34868 15.45244,17.11028 L15.45244,10.49548 C15.45244,8.24628 13.62244,6.41588 11.37324,6.41588" id="Fill-1" fill="white"></path>
                <path d="M18.73544,12.93704 C19.81384,11.86744 21.93384,11.85464 21.95504,11.85464 L24.65624,11.85544 L24.65624,13.64344 C23.68984,15.86064 21.93024,16.65544 20.59464,16.65544 C20.37304,16.65544 20.15624,16.63384 19.94944,16.59224 C18.80784,16.36144 18.09824,15.57744 18.09824,14.54624 C18.09824,13.89744 18.31264,13.35624 18.73544,12.93704 L18.73544,12.93704 Z M25.47704,14.26784 L25.47704,13.73544 L25.47704,13.73144 L25.47704,11.35064 C25.47704,8.17304 24.13944,6.62864 21.38784,6.62864 C19.00864,6.62864 17.86184,7.84224 17.81424,7.89384 C17.66144,8.05904 17.67104,8.31824 17.83584,8.47224 C17.99464,8.62024 18.26664,8.61104 18.41504,8.45304 C18.42464,8.44304 19.40104,7.44944 21.38784,7.44944 C22.95304,7.44944 24.55184,7.88424 24.65104,11.03424 L21.96944,11.03424 C21.71544,11.03424 19.45224,11.07064 18.15864,12.35184 C17.57384,12.93104 17.27744,13.66944 17.27744,14.54624 C17.27744,15.96984 18.26224,17.08864 19.78624,17.39744 C20.04464,17.44944 20.31424,17.47624 20.58824,17.47624 L20.59024,17.47624 C21.88144,17.47544 23.49504,16.87184 24.66104,15.28344 C24.67424,16.02104 24.71224,16.94824 24.81944,17.35664 C24.86664,17.53744 25.02984,17.66304 25.21624,17.66304 C25.25144,17.66304 25.28664,17.65864 25.32064,17.64944 C25.53944,17.59224 25.67104,17.36744 25.61384,17.14824 C25.49904,16.71224 25.46904,15.15064 25.47704,14.26784 L25.47704,14.26784 Z" id="Fill-3" fill="white"></path>
                <path d="M33.154,16.15528 C31.9604,16.65448 31.068,16.72208 30.5428,16.35008 C29.9208,15.90968 29.942,14.94008 29.9464,14.82448 L29.9464,7.70608 L33.1504,7.70608 C33.3768,7.70608 33.5612,7.52208 33.5612,7.29568 C33.5612,7.06928 33.3768,6.88528 33.1504,6.88528 L29.9464,6.88528 L29.9464,3.83088 C29.9464,3.60448 29.7624,3.42008 29.536,3.42008 C29.3096,3.42008 29.1256,3.60448 29.1256,3.83088 L29.1256,6.88528 L26.9052,6.88528 C26.6788,6.88528 26.4948,7.06928 26.4948,7.29568 C26.4948,7.52208 26.6788,7.70608 26.9052,7.70608 L29.1256,7.70608 L29.1264,14.79808 C29.1224,14.85888 29.0416,16.28968 30.0644,17.01808 C30.4272,17.27608 30.8768,17.40688 31.4012,17.40688 C31.9908,17.40688 32.6872,17.24048 33.4712,16.91288 C33.68,16.82568 33.7788,16.58448 33.6912,16.37568 C33.6064,16.17168 33.3568,16.06888 33.154,16.15528" id="Fill-5" fill="white"></path>
                <path d="M43.43392,14.97376 C43.25992,14.83936 42.99312,14.87456 42.85872,15.04816 C42.84752,15.06176 41.72312,16.46656 39.63992,16.46656 C36.99992,16.46656 35.35952,14.73896 35.35952,11.95856 C35.35952,9.30376 37.09912,7.44976 39.58992,7.44976 C41.83272,7.44976 42.60272,8.73936 42.63432,8.79416 C42.74192,8.98256 43.00272,9.05536 43.19272,8.94736 C43.38992,8.83616 43.45992,8.58496 43.34832,8.38816 C43.30792,8.31576 42.32272,6.62856 39.58992,6.62856 C36.66272,6.62856 34.53832,8.87016 34.53832,11.95856 C34.53832,15.19656 36.54072,17.28816 39.63992,17.28816 C42.15472,17.28816 43.45592,15.61936 43.50952,15.54856 C43.64712,15.36936 43.61312,15.11176 43.43392,14.97376" id="Fill-7" fill="white"></path>
                <path d="M53.17276,7.66456 C52.52916,6.97696 51.62196,6.62856 50.47476,6.62856 C48.35636,6.62856 47.12796,7.80576 46.43676,8.93136 L46.43676,0.95496 C46.43676,0.72856 46.25236,0.54416 46.02596,0.54416 C45.79956,0.54416 45.61556,0.72856 45.61556,0.95496 L45.61556,11.02456 L45.61556,11.02776 L45.61556,17.25256 C45.61556,17.47896 45.79956,17.66296 46.02596,17.66296 C46.25236,17.66296 46.43676,17.47896 46.43676,17.25256 L46.43676,11.05896 C46.50876,10.71936 47.28876,7.44976 50.47476,7.44976 C51.38396,7.44976 52.08916,7.70976 52.57036,8.22296 C53.38436,9.08976 53.34436,10.41616 53.33676,10.57216 L53.33676,17.25256 C53.33676,17.47896 53.52076,17.66296 53.74716,17.66296 C53.97356,17.66296 54.15796,17.47896 54.15796,17.25256 L54.15716,10.59896 C54.16196,10.52736 54.25876,8.82496 53.17276,7.66456" id="Fill-9" fill="white"></path>
                <g id="Group-13" transform="translate(52.000000, 0.063120)">
                    <mask id="mask-2" fill="white">
                        <use xlink:href="#path-1"></use>
                    </mask>
                    <g id="Clip-12"></g>
                    <path d="M7.59936,1.79836 C7.56016,1.60916 7.50656,1.46036 7.43656,1.34476 C7.34336,1.11556 7.16016,0.89876 6.87656,0.68156 C6.57656,0.45276 6.15016,0.33676 5.60896,0.33676 C5.37216,0.33676 5.09336,0.40636 4.75496,0.55036 C4.48976,0.66356 4.22456,0.81996 3.96456,1.01716 C3.36616,0.64316 2.78576,0.45396 2.23576,0.45396 C1.84736,0.45396 1.51496,0.54396 1.24736,0.72276 C0.99496,0.89036 0.80056,1.07836 0.66776,1.28036 C0.53616,1.48116 0.47976,1.58156 0.46056,1.66356 C0.36736,1.91396 0.31976,2.19596 0.31976,2.50196 C0.31976,2.91916 0.40496,3.29156 0.57256,3.61116 C0.73376,3.91756 0.92176,4.17076 1.13136,4.36356 C1.29736,4.51716 1.39056,4.60036 1.47016,4.63996 L3.93416,6.58556 C3.98656,6.62636 4.04976,6.64716 4.11296,6.64716 C4.18416,6.64716 4.25536,6.62116 4.31056,6.56956 L6.64656,4.37756 C6.72376,4.32836 6.80696,4.23556 6.94576,4.07996 C7.12456,3.87916 7.28816,3.62436 7.43136,3.32196 C7.58096,3.00516 7.65696,2.64076 7.65696,2.23836 C7.65696,2.12916 7.63856,1.98556 7.59936,1.79836" id="Fill-11" fill="white" mask="url(#mask-2)"></path>
                </g>
            </g>
        </g>
    </g>
</svg>